<mxfile host="Electron" modified="2024-05-03T21:16:59.703Z" agent="Mozilla/5.0 (X11; Linux x86_64) AppleWebKit/537.36 (KHTML, like Gecko) draw.io/24.2.5 Chrome/120.0.6099.109 Electron/28.1.0 Safari/537.36" etag="5jogU2h8Gd6QAqJVz-NX" version="24.2.5" type="device">
  <diagram name="Page-1" id="r0iCRlfaoTwVJUb3QfYR">
    <mxGraphModel dx="283" dy="475" grid="1" gridSize="10" guides="1" tooltips="1" connect="1" arrows="1" fold="1" page="1" pageScale="1" pageWidth="850" pageHeight="1100" math="0" shadow="0">
      <root>
        <mxCell id="0" />
        <mxCell id="1" parent="0" />
        <object label="" id="line">
          <mxCell style="edgeStyle=orthogonalEdgeStyle;rounded=0;orthogonalLoop=1;jettySize=auto;html=1;entryX=0;entryY=0.5;entryDx=0;entryDy=0;strokeWidth=5;fillColor=#ffe6cc;strokeColor=#d79b00;exitX=1;exitY=0.5;exitDx=0;exitDy=0;" parent="1" source="A" target="B" edge="1">
            <mxGeometry relative="1" as="geometry" />
          </mxCell>
        </object>
        <object label="A" id="A">
          <mxCell style="rounded=0;whiteSpace=wrap;html=1;strokeWidth=5;fillColor=#d5e8d4;strokeColor=#82b366;" parent="1" vertex="1">
            <mxGeometry x="120" y="200" width="120" height="60" as="geometry" />
          </mxCell>
        </object>
        <object label="B" id="B">
          <mxCell style="rounded=0;whiteSpace=wrap;html=1;strokeWidth=6;fillColor=#e1d5e7;strokeColor=#9673a6;" parent="1" vertex="1">
            <mxGeometry x="510" y="200" width="120" height="60" as="geometry" />
          </mxCell>
        </object>
        <object label="" id="ball">
          <mxCell style="ellipse;whiteSpace=wrap;html=1;aspect=fixed;fillColor=#d80073;fontColor=#ffffff;strokeColor=#A50040;strokeWidth=0;" parent="1" vertex="1">
            <mxGeometry x="270" y="210" width="40" height="40" as="geometry" />
          </mxCell>
        </object>
      </root>
    </mxGraphModel>
  </diagram>
</mxfile>
